<?xml version="1.0" encoding="UTF-8" standalone="no"?>
<svg width="128" height="128" viewBox="0 0 128 128" fill="none" xmlns="http://www.w3.org/2000/svg">
  <rect width="128" height="128" rx="24" fill="#4285F4"/>
  <path d="M64 32C45.2 32 30 47.2 30 66C30 84.8 45.2 100 64 100C82.8 100 98 84.8 98 66C98 47.2 82.8 32 64 32ZM64 92C49.6 92 38 80.4 38 66C38 51.6 49.6 40 64 40C78.4 40 90 51.6 90 66C90 80.4 78.4 92 64 92Z" fill="white"/>
  <path d="M64 48C54 48 46 56 46 66C46 76 54 84 64 84C74 84 82 76 82 66C82 56 74 48 64 48ZM64 76C58.4 76 54 71.6 54 66C54 60.4 58.4 56 64 56C69.6 56 74 60.4 74 66C74 71.6 69.6 76 64 76Z" fill="white"/>
  <path d="M64 64C64 64 64 64 64 64C64 64 64 64 64 64C64 64 64 64 64 64Z" fill="white"/>
  <path d="M30 28L38 36M98 28L90 36M30 104L38 96M98 104L90 96" stroke="white" stroke-width="4" stroke-linecap="round"/>
</svg>
